<?xml version="1.0" standalone="no"?>
<!DOCTYPE svg PUBLIC "-//W3C//DTD SVG 20010904//EN"
 "http://www.w3.org/TR/2001/REC-SVG-20010904/DTD/svg10.dtd">
<svg version="1.0" xmlns="http://www.w3.org/2000/svg"
 width="48.000000pt" height="48.000000pt" viewBox="0 0 48.000000 48.000000"
 preserveAspectRatio="xMidYMid meet">

<g transform="translate(0.000000,48.000000) scale(0.100000,-0.100000)"
fill="#000000" stroke="none">
<path d="M110 430 c-13 -13 -20 -33 -20 -61 0 -33 -6 -47 -30 -69 -21 -20 -30
-37 -30 -60 0 -23 9 -40 30 -60 21 -20 30 -37 30 -60 0 -70 44 -100 109 -74
36 14 42 14 70 0 68 -36 121 -7 121 65 0 33 6 47 30 69 41 38 41 82 0 120 -21
20 -30 37 -30 60 0 70 -44 100 -109 74 -36 -14 -42 -14 -70 0 -41 22 -77 20
-101 -4z m86 -24 c19 -15 19 -15 -1 -35 -11 -11 -32 -23 -47 -26 -25 -6 -28
-4 -28 18 0 56 32 75 76 43z m148 -2 c9 -8 16 -27 16 -41 0 -22 -3 -24 -27
-18 -30 7 -63 32 -63 47 0 8 34 26 52 27 4 1 14 -6 22 -15z m-94 -44 c0 -5 -4
-10 -10 -10 -5 0 -10 5 -10 10 0 6 5 10 10 10 6 0 10 -4 10 -10z m65 -82 l20
-38 -20 -37 c-19 -36 -23 -38 -72 -41 -50 -3 -54 -1 -73 30 -25 41 -25 55 0
96 19 31 23 33 73 30 49 -3 53 -5 72 -40z m-165 28 c0 -3 -4 -8 -10 -11 -5 -3
-10 -1 -10 4 0 6 5 11 10 11 6 0 10 -2 10 -4z m200 -6 c0 -5 -2 -10 -4 -10 -3
0 -8 5 -11 10 -3 6 -1 10 4 10 6 0 11 -4 11 -10z m-245 -82 c-6 -24 -9 -26
-26 -18 -25 14 -26 65 -1 79 22 12 36 -19 27 -61z m315 22 c0 -19 -7 -33 -19
-39 -16 -9 -20 -7 -25 14 -4 14 -4 36 0 50 5 21 9 23 25 14 12 -6 19 -20 19
-39z m-275 -60 c3 -5 1 -10 -4 -10 -6 0 -11 5 -11 10 0 6 2 10 4 10 3 0 8 -4
11 -10z m205 0 c0 -5 -5 -10 -11 -10 -5 0 -7 5 -4 10 3 6 8 10 11 10 2 0 4 -4
4 -10z m-155 -71 c21 -20 15 -32 -21 -43 -28 -8 -54 17 -54 51 0 22 3 24 28
18 15 -3 36 -15 47 -26z m165 7 c0 -55 -33 -73 -75 -42 -17 12 -18 16 -5 31
31 38 80 44 80 11z m-110 4 c0 -5 -4 -10 -10 -10 -5 0 -10 5 -10 10 0 6 5 10
10 10 6 0 10 -4 10 -10z"/>
<path d="M204 266 c-3 -8 -4 -25 -2 -38 2 -19 9 -23 38 -23 33 0 35 2 35 35 0
32 -3 35 -33 38 -21 2 -34 -2 -38 -12z"/>
</g>
</svg>
